<?xml version="1.0" encoding="utf-8"?>
<!-- Generator: Adobe Illustrator 17.0.0, SVG Export Plug-In . SVG Version: 6.00 Build 0)  -->
<!DOCTYPE svg PUBLIC "-//W3C//DTD SVG 1.1//EN" "http://www.w3.org/Graphics/SVG/1.1/DTD/svg11.dtd">
<svg version="1.1" id="Objects" xmlns="http://www.w3.org/2000/svg" xmlns:xlink="http://www.w3.org/1999/xlink" x="0px" y="0px"
	 width="478.476px" height="495.58px" viewBox="0 0 478.476 495.58" enable-background="new 0 0 478.476 495.58"
	 xml:space="preserve">
<circle fill="#D8D8D8" cx="239.238" cy="237.639" r="179"/>
<g>
	<path fill="#AC452C" d="M145.586,283.7h3.223l64.496,89.73l0.334,52.346c8.418,0.386,16.87,1.988,25.767,1.988
		c8.662,0,17.217-1.475,25.432-1.841v-52.489l56.953-78.462c0.52-0.716,0.573-1.664,0.141-2.433
		c-0.432-0.771-1.266-1.225-2.152-1.145c-5.318,0.436-11.033,0.654-16.986,0.654c-20.461,0-40.531-2.625-52.472-4.544
		c6.742,0.094,15.851,0.187,25.474,0.187c23.933,0,53.413-0.579,57.935-3.328c0.674-0.412,1.085-1.141,1.085-1.931l-0.002-61.05
		c-0.007-1.818-0.025-6.645-26.928-11.112c-7.098-1.179-15.161-2.147-23.899-2.893v10.867c5.077,0.439,9.909,0.953,14.4,1.539
		c3.798,0.497,7.312,1.035,10.498,1.611c-3.193,0.579-6.704,1.119-10.498,1.613c-16.556,2.164-37.621,3.356-59.314,3.356
		c-21.693,0-42.758-1.192-59.314-3.356c-3.793-0.494-7.305-1.035-10.497-1.613c3.186-0.577,6.7-1.115,10.497-1.611
		c2.96-0.387,6.07-0.742,9.296-1.065c-0.594-2.232-0.912-4.7-0.912-7.376c0-1.184,0.079-2.32,0.204-3.426
		c-6.515,0.657-12.591,1.443-18.087,2.355c-26.904,4.467-26.921,9.293-26.929,11.12v60.052
		C143.329,282.689,144.34,283.7,145.586,283.7z"/>
	<path fill="#C85133" d="M308.218,210.269c-5.496-0.912-11.572-1.697-18.087-2.355c0.125,1.106,0.204,2.242,0.204,3.426
		c0,2.676-0.318,5.143-0.912,7.376c3.226,0.323,6.335,0.678,9.296,1.065c3.798,0.496,7.311,1.035,10.497,1.611
		c-3.192,0.578-6.704,1.118-10.497,1.613c-16.556,2.164-37.621,3.356-59.314,3.356s-42.758-1.192-59.314-3.356
		c-3.794-0.494-7.305-1.034-10.498-1.613c3.186-0.576,6.7-1.115,10.498-1.611c4.491-0.586,9.323-1.1,14.4-1.539v-10.867
		c-8.738,0.746-16.801,1.714-23.899,2.893c-26.904,4.467-26.921,9.295-26.928,11.112l-0.002,61.05c0,0.789,0.411,1.519,1.085,1.931
		c4.522,2.749,34.002,3.328,57.935,3.328c9.623,0,18.732-0.093,25.474-0.187c-11.941,1.92-32.011,4.544-52.472,4.544
		c-5.953,0-21.535-1.384-21.535-1.384s2.018,3.591,2.538,4.307l56.953,78.462v52.342c1.242,1.097,16.987,2.497,25.767,2.497
		c8.779,0,24.35-1.401,25.766-2.497v-52.346l63.003-87.653l3.873-0.987c2.216-0.888,3.1-2.101,3.1-3.349v-60.052
		C335.14,219.562,335.122,214.736,308.218,210.269z"/>
	<path d="M240.419,161.441c-0.042,0.055-0.086,0.106-0.129,0.159l0.129-0.051V161.441z"/>
	<path d="M284.607,161.441c-0.042,0.055-0.086,0.106-0.129,0.159l0.129-0.051V161.441z"/>
	<polygon fill="#80B4FF" points="159.303,139.104 159.407,139.104 159.407,160.092 166.149,160.092 166.149,134.206 
		160.184,134.206 152.457,137.272 153.598,141.374 	"/>
	<path fill="#80B4FF" d="M183.264,160.411c5.446,0,9.854-4.102,9.854-13.382c0-6.173-1.815-13.142-9.594-13.142
		c-7.001,0-10.114,5.934-10.114,13.381C173.41,153.92,175.9,160.411,183.264,160.411z M180.257,147.149
		c-0.052-6.014,1.037-8.802,3.163-8.802c2.178,0,2.852,3.266,2.852,8.802c0,5.934-0.726,8.802-2.852,8.802
		C181.138,155.952,180.152,153.203,180.257,147.149z"/>
	<path fill="#80B4FF" d="M205.358,160.411c5.446,0,9.854-4.102,9.854-13.382c0-6.173-1.815-13.142-9.594-13.142
		c-7.001,0-10.114,5.934-10.114,13.381C195.504,153.92,197.994,160.411,205.358,160.411z M202.351,147.149
		c-0.052-6.014,1.037-8.802,3.163-8.802c2.178,0,2.852,3.266,2.852,8.802c0,5.934-0.726,8.802-2.852,8.802
		C203.233,155.952,202.247,153.203,202.351,147.149z"/>
	<path fill="#80B4FF" d="M227.453,160.411c5.446,0,9.854-4.102,9.854-13.382c0-6.173-1.815-13.142-9.594-13.142
		c-7.001,0-10.113,5.934-10.113,13.381C217.6,153.92,220.089,160.411,227.453,160.411z M224.445,147.149
		c-0.052-6.014,1.037-8.802,3.164-8.802c2.178,0,2.852,3.266,2.852,8.802c0,5.934-0.726,8.802-2.852,8.802
		C225.327,155.952,224.341,153.203,224.445,147.149z"/>
	<polygon fill="#80B4FF" points="247.68,139.104 247.784,139.104 247.784,160.092 254.526,160.092 254.526,134.206 248.562,134.206 
		240.835,137.272 241.975,141.374 	"/>
	<path fill="#80B4FF" d="M271.642,160.411c5.445,0,9.853-4.102,9.853-13.382c0-6.173-1.815-13.142-9.594-13.142
		c-7.001,0-10.113,5.934-10.113,13.381C261.788,153.92,264.277,160.411,271.642,160.411z M268.634,147.149
		c-0.052-6.014,1.037-8.802,3.163-8.802c2.178,0,2.852,3.266,2.852,8.802c0,5.934-0.726,8.802-2.852,8.802
		C269.515,155.952,268.53,153.203,268.634,147.149z"/>
	<polygon fill="#80B4FF" points="291.869,139.104 291.973,139.104 291.973,160.092 298.715,160.092 298.715,134.206 292.75,134.206 
		285.023,137.272 286.165,141.374 	"/>
	<path fill="#80B4FF" d="M315.831,160.411c5.445,0,9.854-4.102,9.854-13.382c0-6.173-1.815-13.142-9.595-13.142
		c-7.001,0-10.113,5.934-10.113,13.381C305.976,153.92,308.466,160.411,315.831,160.411z M312.823,147.149
		c-0.052-6.014,1.037-8.802,3.163-8.802c2.178,0,2.852,3.266,2.852,8.802c0,5.934-0.726,8.802-2.852,8.802
		C313.704,155.952,312.719,153.203,312.823,147.149z"/>
	<path fill="#60A1EF" d="M183.264,192.447c5.446,0,9.854-4.102,9.854-13.381c0-6.173-1.815-13.143-9.594-13.143
		c-7.001,0-10.114,5.934-10.114,13.381C173.41,185.956,175.9,192.447,183.264,192.447z M180.257,179.185
		c-0.052-6.015,1.037-8.802,3.163-8.802c2.178,0,2.852,3.266,2.852,8.802c0,5.934-0.726,8.802-2.852,8.802
		C181.138,187.987,180.152,185.239,180.257,179.185z"/>
	<polygon fill="#60A1EF" points="210.337,192.128 210.337,166.242 204.373,166.242 196.646,169.308 197.786,173.41 203.492,171.14 
		203.595,171.14 203.595,192.128 	"/>
	<path fill="#60A1EF" d="M227.453,192.447c5.446,0,9.854-4.102,9.854-13.381c0-6.173-1.815-13.143-9.594-13.143
		c-7.001,0-10.113,5.934-10.113,13.381C217.6,185.956,220.089,192.447,227.453,192.447z M224.445,179.185
		c-0.052-6.015,1.037-8.802,3.164-8.802c2.178,0,2.852,3.266,2.852,8.802c0,5.934-0.726,8.802-2.852,8.802
		C225.327,187.987,224.341,185.239,224.445,179.185z"/>
	<polygon fill="#60A1EF" points="247.68,171.14 247.784,171.14 247.784,192.128 254.526,192.128 254.526,166.242 248.562,166.242 
		240.835,169.308 241.975,173.41 	"/>
	<path fill="#60A1EF" d="M271.642,192.447c5.445,0,9.853-4.102,9.853-13.381c0-6.173-1.815-13.143-9.594-13.143
		c-7.001,0-10.113,5.934-10.113,13.381C261.788,185.956,264.277,192.447,271.642,192.447z M268.634,179.185
		c-0.052-6.015,1.037-8.802,3.163-8.802c2.178,0,2.852,3.266,2.852,8.802c0,5.934-0.726,8.802-2.852,8.802
		C269.515,187.987,268.53,185.239,268.634,179.185z"/>
	<polygon fill="#60A1EF" points="291.869,171.14 291.973,171.14 291.973,192.128 298.715,192.128 298.715,166.242 292.75,166.242 
		285.023,169.308 286.165,173.41 	"/>
	<path fill="#4D92D6" d="M205.358,224.482c5.446,0,9.854-4.102,9.854-13.381c0-6.173-1.815-13.143-9.594-13.143
		c-7.001,0-10.114,5.934-10.114,13.382C195.504,217.99,197.994,224.482,205.358,224.482z M202.351,211.22
		c-0.052-6.013,1.037-8.802,3.163-8.802c2.178,0,2.852,3.266,2.852,8.802c0,5.935-0.726,8.802-2.852,8.802
		C203.233,220.022,202.247,217.274,202.351,211.22z"/>
	<polygon fill="#4D92D6" points="232.432,224.164 232.432,198.276 226.467,198.276 218.74,201.344 219.882,205.445 225.586,203.175 
		225.69,203.175 225.69,224.164 	"/>
	<path fill="#4D92D6" d="M249.547,224.482c5.446,0,9.854-4.102,9.854-13.381c0-6.173-1.815-13.143-9.594-13.143
		c-7.001,0-10.113,5.934-10.113,13.382C239.694,217.99,242.183,224.482,249.547,224.482z M246.54,211.22
		c-0.052-6.013,1.037-8.802,3.164-8.802c2.178,0,2.852,3.266,2.852,8.802c0,5.935-0.726,8.802-2.852,8.802
		C247.421,220.022,246.436,217.274,246.54,211.22z"/>
	<polygon fill="#4D92D6" points="276.62,224.164 276.62,198.276 270.656,198.276 262.929,201.344 264.07,205.445 269.775,203.175 
		269.878,203.175 269.878,224.164 	"/>
</g>
</svg>
