<?xml version="1.0" encoding="utf-8"?>
<!-- Generator: Adobe Illustrator 17.0.0, SVG Export Plug-In . SVG Version: 6.00 Build 0)  -->
<!DOCTYPE svg PUBLIC "-//W3C//DTD SVG 1.1//EN" "http://www.w3.org/Graphics/SVG/1.1/DTD/svg11.dtd">
<svg version="1.1" id="Objects" xmlns="http://www.w3.org/2000/svg" xmlns:xlink="http://www.w3.org/1999/xlink" x="0px" y="0px"
	 width="478.476px" height="495.58px" viewBox="0 0 478.476 495.58" enable-background="new 0 0 478.476 495.58"
	 xml:space="preserve">
<circle fill="#D8D8D8" cx="239.238" cy="237.639" r="179"/>
<g>
	<g>
		<path fill="#FFDECC" d="M117.171,271.931c-40.202,17.623-52.262,27.017-57.028,31.237c-7.347,6.499-11.409,30.732-15.743,51.304
			h90.954h90.952c-4.332-20.573-8.396-44.805-15.742-51.304c-4.765-4.22-16.383-13.373-56.587-30.999L117.171,271.931z"/>
		<path fill="#333333" d="M117.17,271.931c-40.201,17.623-52.261,27.017-57.027,31.237c-7.347,6.499-11.409,30.732-15.743,51.304
			h90.954h90.952c-4.332-20.573-8.396-44.805-15.742-51.304c-4.765-4.22-16.383-13.373-56.587-30.999L117.17,271.931z"/>
		<path fill="#F6C8AC" d="M115.836,236.797v29.836v14.728c10.735,12.693,28.302,13.15,39.039,0v-14.728v-29.836
			C154.875,212.734,115.836,212.734,115.836,236.797z"/>
		<path fill="#F6C8AC" d="M94.649,208.783c3.437-1.135,7.812,2.769,9.77,8.715c1.959,5.945,0.759,11.684-2.68,12.816
			c-3.437,1.132-7.812-2.768-9.769-8.717C90.009,215.65,91.211,209.915,94.649,208.783z"/>
		<path fill="#F6C8AC" d="M175.889,208.783c-3.441-1.135-7.816,2.769-9.773,8.715c-1.959,5.945-0.755,11.684,2.68,12.816
			c3.441,1.132,7.816-2.768,9.773-8.717C180.525,215.65,179.324,209.915,175.889,208.783z"/>
		<path fill="#FFFFFF" d="M135.457,291.052c0,0-27.241,6.501-27.241,8.15c0,1.648,10.365,55.271,10.365,55.271h36.983l4.239-55.035
			L135.457,291.052z"/>
		<polygon fill="#605F5B" points="115.836,272.516 115.836,281.359 124.316,354.473 109.734,354.473 93.694,321.909 
			109.006,311.701 90.294,302.954 107.5,276.253 		"/>
		<polygon fill="#605F5B" points="154.875,272.562 154.875,281.359 146.312,354.473 160.892,354.473 176.932,321.909 
			161.622,311.701 180.332,302.954 165.04,277.075 		"/>
		<path fill="#C93838" d="M126.96,300.092l4.729,7.325c2.442,0,4.887,0,7.331,0l4.73-7.325l-8.294-9.04L126.96,300.092z"/>
		<polygon fill="#C93838" points="131.688,307.416 124.957,354.473 145.753,354.473 139.019,307.416 		"/>
		<path fill="#EDEDED" d="M115.836,266.631l-1.707,6.639l4.775,34.566l16.552-16.786L115.836,266.631z"/>
		<path opacity="0.2" enable-background="new    " d="M115.836,258.376v1.408c0,0,9.972,11.836,19.484,12.264
			c9.511,0.428,19.555-11.46,19.555-11.46v-2.164"/>
		<g>
			<path fill="#F6C8AC" d="M135.387,156.792c-60.053,0-37.036,82.26-33.114,88.562c4.325,6.949,23.413,22.269,33.114,22.269
				c9.704,0,28.788-15.318,33.116-22.269C172.427,239.05,195.442,156.792,135.387,156.792z"/>
		</g>
		<path fill="#EDEDED" d="M154.875,266.631l1.346,6.529l-4.487,35.022l-16.278-17.132L154.875,266.631z"/>
		<polyline opacity="0.05" enable-background="new    " points="115.836,266.631 135.457,291.052 154.875,266.631 154.875,266.05 
			135.457,290.361 115.836,266.05 115.836,266.631 		"/>
		<polygon opacity="0.1" enable-background="new    " points="131.688,307.416 139.019,307.416 139.055,307.656 131.653,307.656 		
			"/>
		<g>
			<path fill="#605343" d="M174.443,217.67c-0.304,1.122-0.616,2.119-0.616,2.119s-5.385,18.33-9.988,24.009
				c-8.913,10.994-20.542,17.803-28.47,17.847c-7.789,0.046-19.268-6.14-28.277-16.889c-3.565-4.253-10.107-23.402-10.216-24.968
				c-0.069-0.975-0.302-1.953-0.513-2.926c-1.205-0.037-1.242,8.13-1.242,8.13c1.818,9.51,3.099,15.777,6.833,20.995
				c5.963,8.335,22.801,21.514,33.024,21.514c10.228,0,27.062-13.177,33.024-21.514c3.763-5.262,4.792-12.266,6.864-22.144
				C174.868,223.845,175.377,217.747,174.443,217.67z"/>
			<g>
				<path fill="#605343" d="M153.802,242.248c-1.384-2.923-12.588-6.879-14.601-7.619c-2.015-0.742-3.443,1.841-3.443,1.841
					s-1.428-2.583-3.443-1.841c-2.014,0.741-13.219,4.697-14.605,7.619c-1.383,2.924-2.057,4.948-2.057,6.952
					c0,2.005,0,9.125,0,9.125s1.985,0.128,3.128-0.739c1.145-0.865,2.448-3.322,2.448-6.382c0-3.059,2.249-5.519,4.98-6.075
					c2.882-0.584,9.55-1.697,9.55-3.509c0,1.811,7.129,3.067,9.549,3.509c2.741,0.5,4.981,3.016,4.981,6.075
					c0,3.06,1.302,5.518,2.445,6.382c1.145,0.867,3.129,0.739,3.129,0.739s0-7.119,0-9.125
					C155.861,247.196,155.188,245.171,153.802,242.248z"/>
			</g>
		</g>
		<path fill="#605F5B" d="M154.461,230.088c0.335-0.01,0.686-0.03,1.044-0.061c9.77-0.817,12.177-5.207,13.272-10.75
			c1.21-6.091,1.287-8.21,2.861-8.768c1.15-0.415,1.433-1.776,1.4-3.364c-0.043-1.579-0.093-1.753-1.997-2.412
			c-1.508-0.526-9.848-1.283-16.106-0.889l-0.027,1.639c4.93-0.268,9.685,0.324,11.062,1.217c3.136,2.03,2.222,11.833-0.422,16.689
			c-1.834,3.371-6.689,5.086-11.062,5.158L154.461,230.088z M136.205,207.047c-2.156,0.052-10.98-2.493-17.255-3.034
			c-0.446-0.043-0.903-0.076-1.374-0.1l-0.026,1.642c5.102,0.233,10.383,1.389,12.191,4.113c2.969,4.469-2.365,15.394-7.189,17.826
			c-1.466,0.739-3.398,1.12-5.428,1.141l-0.029,1.545c8.448,0.012,11.57-6.078,12.612-8.112c1.963-3.824,1.558-9.098,6.393-9.107
			c4.829-0.012,4.197,5.165,5.923,8.986c0.931,2.06,3.672,8.387,12.439,8.139l0.022-1.541c-2.161,0.034-4.218-0.338-5.724-1.114
			c-4.674-2.411-9.351-13.309-6.104-17.79c1.954-2.705,7.196-3.888,12.251-4.161l0.027-1.639c-0.387,0.021-0.768,0.049-1.139,0.085
			C148.142,204.443,141.287,206.915,136.205,207.047z M117.575,203.914c-6.196-0.33-14.405,0.451-15.92,0.971
			c-1.949,0.675-2.009,0.848-2.147,2.432c-0.133,1.583,0.073,2.947,1.192,3.352c1.538,0.553,1.487,2.675,2.329,8.759
			c0.757,5.54,2.892,9.914,12.618,10.689c0.497,0.043,0.98,0.058,1.447,0.064l0.029-1.545c-4.469,0.036-9.44-1.655-11.112-5.11
			c-2.348-4.848-2.677-14.641,0.596-16.693c1.412-0.886,6.097-1.497,10.943-1.276L117.575,203.914z"/>
	</g>
	<path fill="#343434" d="M229.354,192.764l4.729,7.325c2.442,0,4.887,0,7.331,0l4.73-7.325l-8.294-9.04L229.354,192.764z"/>
	<polygon fill="#343434" points="234.082,200.089 227.351,247.145 248.147,247.145 241.413,200.089 	"/>
	<path fill="#605343" d="M107.267,153.512c21.196-18.25,62.707,5.053,72.396,18.353c-3.91,13.37-2.007,30.416-4.877,49.405
		c0.001-0.029,0-0.054,0.002-0.082c-0.034,0.191-0.073,0.385-0.125,0.589c-0.041,0.154-0.387,0.592-0.454,0.712
		c-0.101,0.18-0.853-0.016-1.103-0.133c-0.091-0.041-0.132-0.157-0.136-0.254c-0.116-1.676-0.012-4.998-0.007-5.035
		c0.227-2.612-0.153-5.268,0.238-7.821c-1.945-11.97-0.374-12.472-7.076-24.426c-0.565-1.007-4.152-5.094-4.638-5.463
		c-11.183-3.998-15.081,2.663-25.636,6.868c-4.036,1.608-10.115,1.717-14.581,1.717c-6.956,0-13.696-7.455-13.837-9.022
		c-8.362,12.612-9.218,21.623-11.672,32.456c0.336,1.88,0.699,3.761,0.866,5.692c0.006,0.037,0.108,3.359-0.005,5.035
		c-0.005,0.097-0.047,0.213-0.137,0.254c-0.249,0.118-1.003,0.313-1.104,0.133c-0.067-0.12-0.415-0.557-0.455-0.712
		c-0.189-0.723-0.227-1.333-0.265-2.058c-0.127-0.947-0.298-1.961-0.428-2.983C91.024,205.012,85.132,158.545,107.267,153.512z
		 M138.76,169.197c0.347-0.105,0.692-0.203,1.037-0.302c-0.514,0.122-1.027,0.252-1.542,0.393
		C138.423,169.255,138.592,169.227,138.76,169.197z"/>
	<polygon opacity="0.1" enable-background="new    " points="234.082,200.089 241.413,200.089 241.449,200.329 234.047,200.329 	"/>
	<g>
		<path fill="#806049" d="M343.955,173.605c4.256-7.395,38.18-13.917,52.02,12.374c13.843,26.29,6.871,35.499,14.503,44.779
			c7.638,9.281,0.449,30.576-4.857,32.441c-5.306,1.864-3.177,9.232-0.588,12.395c11.043,13.508-4.925,36.275-47.562,36.044
			c-45.576-0.251-54.518-26.73-42.834-34.99c3.81-2.697,5.287-7.869,1.114-12.425c-4.173-4.559-13.796-21.539-4.729-35.459
			C320.091,214.848,312.166,173.586,343.955,173.605z"/>
		<path fill="#28A8E3" d="M376.112,281.838c-0.335,0.525-33.296,1.052-33.662,1.572c-10.35,14.765-32.717,21.235-50.501,25.212
			c-17.697,3.956-18.38,26.439-18.41,41.412h172.538c-0.027-14.973-0.356-37.372-18.413-41.412
			C409.607,304.586,385.931,297.275,376.112,281.838z"/>
		<path fill="#F5D5C1" d="M342.521,250.299v28.356v13.994c8.66,17.72,24.21,18.179,34.572,0v-13.994v-28.356
			C377.093,227.432,342.521,227.432,342.521,250.299z"/>
		<path fill="#F5D5C1" d="M405.407,230.524c-3.454-1.555-8.332,2.262-10.895,8.519c-2.566,6.264-1.847,12.599,1.607,14.153
			c3.454,1.555,8.334-2.258,10.898-8.519C409.579,238.416,408.86,232.082,405.407,230.524z"/>
		<path fill="#F5D5C1" d="M314.24,230.524c3.453-1.555,8.331,2.258,10.898,8.519c2.562,6.264,1.844,12.599-1.61,14.153
			c-3.453,1.555-8.331-2.258-10.897-8.519C310.066,238.416,310.789,232.082,314.24,230.524z"/>
		<path opacity="0.2" enable-background="new    " d="M342.521,271.364v1.178c0,0,10.846,10.832,17.125,10.832
			c6.277,0,17.447-10.952,17.447-10.952v-1.058H342.521z"/>
		<path fill="#F5D5C1" d="M359.841,279.594c-10.735,0-33.414-17.694-40.423-43.035c-7.08-25.591,6.251-62.295,40.423-62.295
			c34.169,0,47.502,36.704,40.42,62.295C393.25,261.899,370.574,279.594,359.841,279.594z"/>
		<path fill="#80604A" d="M351.8,205.998c-8.385,17.578-11.786,22.768-22.935,18.127c-11.147-4.639-9.032,8.367-7.003,17.646
			c-9.873-12.533-8.713-24.436-5.643-36.537c3.365-13.262,20.338-33.437,36.259-33.066c8.651-0.909,21.742,0.164,35.669,10.203
			c24.32,17.527,16.198,56.907,9.647,61.552c6.345-36.473-9.192-29.049-19.913-48.128C374.36,187.406,360.913,186.887,351.8,205.998
			z"/>
		<rect x="357.55" y="306.296" fill="#FFFFFF" width="3.544" height="43.738"/>
		<g>
			<polygon fill="#FFFFFF" points="342.521,283.375 330.182,294.654 345.873,319.002 359.416,306.155 			"/>
			<polygon fill="#FFFFFF" points="377.093,283.291 389.43,295.047 372.955,319.002 359.416,306.155 			"/>
		</g>
		<path fill="#28A8E3" d="M378.58,249.755c0.338-0.01,0.689-0.031,1.05-0.061c9.811-0.82,12.229-5.229,13.329-10.796
			c1.214-6.116,1.292-8.244,2.872-8.805c1.156-0.417,1.439-1.784,1.406-3.378c-0.043-1.588-0.093-1.759-2.006-2.423
			c-1.515-0.53-9.891-1.289-16.176-0.893l-0.026,1.647c4.951-0.27,9.725,0.325,11.108,1.222c3.15,2.039,2.23,11.884-0.423,16.76
			c-1.842,3.385-6.719,5.108-11.112,5.181L378.58,249.755z M360.247,226.617c-2.164,0.052-11.027-2.504-17.328-3.047
			c-0.448-0.043-0.906-0.076-1.382-0.1l-0.024,1.65c5.122,0.233,10.427,1.393,12.244,4.129c2.982,4.487-2.375,15.46-7.219,17.904
			c-1.472,0.741-3.412,1.124-5.451,1.145l-0.03,1.553c8.484,0.012,11.618-6.106,12.665-8.147c1.972-3.84,1.564-9.137,6.42-9.145
			c4.849-0.012,4.214,5.187,5.949,9.024c0.936,2.07,3.687,8.423,12.49,8.174l0.022-1.547c-2.169,0.035-4.234-0.339-5.746-1.118
			c-4.697-2.422-9.391-13.367-6.13-17.867c1.961-2.717,7.226-3.904,12.303-4.178l0.026-1.647c-0.389,0.021-0.771,0.049-1.144,0.085
			C372.235,224,365.35,226.484,360.247,226.617z M341.537,223.47c-6.223-0.332-14.466,0.453-15.988,0.975
			c-1.957,0.677-2.018,0.851-2.156,2.443c-0.134,1.589,0.072,2.96,1.197,3.367c1.545,0.555,1.494,2.685,2.341,8.797
			c0.76,5.563,2.903,9.958,12.672,10.735c0.499,0.043,0.982,0.058,1.453,0.064l0.03-1.553c-4.488,0.036-9.48-1.661-11.16-5.132
			c-2.358-4.868-2.688-14.704,0.598-16.765c1.418-0.889,6.122-1.504,10.99-1.282L341.537,223.47z"/>
		<polygon opacity="0.05" enable-background="new    " points="342.521,283.375 359.416,306.155 377.093,283.291 377.074,282.807 
			359.416,305.513 342.521,282.807 		"/>
	</g>
	<g>
		<path fill="#FFDECC" d="M216.714,295.74c-40.202,17.623-52.263,27.017-57.029,31.237c-7.346,6.499-11.409,30.732-15.742,51.304
			h90.953h90.953c-4.332-20.573-8.397-44.805-15.743-51.304c-4.765-4.22-16.383-13.373-56.586-30.999L216.714,295.74z"/>
		<path fill="#333333" d="M216.712,295.74c-40.201,17.623-52.261,27.017-57.027,31.237c-7.346,6.499-11.409,30.732-15.742,51.304
			h90.953h90.953c-4.332-20.573-8.397-44.805-15.743-51.304c-4.765-4.22-16.383-13.373-56.586-30.999L216.712,295.74z"/>
		<path fill="#F6C5A0" d="M215.377,260.605v29.836v14.728c10.735,12.693,28.302,13.15,39.039,0v-14.728v-29.836
			C254.415,236.544,215.377,236.544,215.377,260.605z"/>
		
			<ellipse transform="matrix(-0.9498 0.3127 -0.3127 -0.9498 461.638 412.702)" fill="#F6C5A0" cx="197.725" cy="243.37" rx="6.554" ry="11.333"/>
		
			<ellipse transform="matrix(-0.9498 -0.3129 0.3129 -0.9498 453.986 559.5799)" fill="#F6C5A0" cx="271.893" cy="243.363" rx="6.556" ry="11.334"/>
		<path fill="#FFFFFF" d="M234.999,314.861c0,0-27.242,6.501-27.242,8.151c0,1.648,10.365,55.271,10.365,55.271h36.983l4.239-55.035
			L234.999,314.861z"/>
		<polygon fill="#1A1A1A" points="215.377,296.326 215.377,305.169 223.856,378.283 209.276,378.283 193.236,345.719 
			208.548,335.51 189.836,326.762 207.042,300.062 		"/>
		<polygon fill="#1B1B1B" points="254.415,296.371 254.415,305.169 245.854,378.283 260.434,378.283 276.473,345.719 
			261.165,335.51 279.873,326.762 264.582,300.885 		"/>
		<path fill="#28A8E3" d="M226.503,323.901l4.727,7.325c2.443,0,4.887,0,7.332,0l4.73-7.325l-8.292-9.04L226.503,323.901z"/>
		<polygon fill="#28A8E3" points="231.23,331.226 224.5,378.283 245.294,378.283 238.562,331.226 		"/>
		<path fill="#EDEDED" d="M215.377,290.441l-1.706,6.639l4.775,34.566l16.552-16.786L215.377,290.441z"/>
		<path opacity="0.2" enable-background="new    " d="M215.377,282.186v1.408c0,0,9.973,11.836,19.484,12.263
			c9.512,0.428,19.555-11.46,19.555-11.46v-2.164"/>
		<g>
			<path fill="#F6C5A0" d="M234.929,180.6c-60.053,0-37.036,82.26-33.114,88.561c4.324,6.949,23.413,22.269,33.114,22.269
				c9.704,0,28.787-15.318,33.115-22.269C271.968,262.86,294.983,180.6,234.929,180.6z"/>
			<path fill="#605343" d="M261.868,182.522c-20.282-15.96-51.599-6.444-61.056,6.856c-11.835,16.645-7.649,41.914-4.848,60.902
				c-0.001-0.029,0-0.054-0.001-0.082c0.032,0.191,0.07,0.386,0.122,0.59c0.039,0.154,0.378,0.591,0.444,0.712
				c0.099,0.18,0.834-0.016,1.077-0.134c0.089-0.041,0.129-0.157,0.133-0.254c0.114-1.675,0.012-4.998,0.007-5.035
				c-0.222-2.612-0.79-5.128-1.173-7.682c1.898-11.97,7.516-14.487,10.461-28.925c0.622-0.965,1.29-1.899,1.988-2.811
				c0.804-1.048,1.638-2.056,2.609-2.951c0.512-0.311,1.004-0.649,1.478-1.018c10.915-3.998,22.17,0.798,32.474,5.003
				c3.939,1.608,8.359,3.509,12.704,3.171c1.856-0.145,3.281-1.369,3.418-2.935c4.932,14.773,8.998,21.623,11.395,32.456
				c-0.329,1.881-0.682,3.761-0.846,5.692c-0.004,0.037-0.105,3.359,0.006,5.035c0.005,0.097,0.045,0.213,0.134,0.254
				c0.244,0.118,0.978,0.313,1.077,0.134c0.066-0.12,0.403-0.557,0.444-0.712c0.185-0.723,0.222-1.333,0.258-2.059
				c0.126-0.947,0.291-1.961,0.417-2.983C277.721,234.022,283.472,187.557,261.868,182.522z M231.127,198.207
				c-0.337-0.105-0.674-0.203-1.011-0.302c0.501,0.122,1.003,0.252,1.506,0.394C231.457,198.266,231.292,198.237,231.127,198.207z"
				/>
		</g>
		<path fill="#EDEDED" d="M254.415,290.441l1.348,6.529l-4.488,35.022l-16.277-17.132L254.415,290.441z"/>
		<polyline opacity="0.05" enable-background="new    " points="215.377,290.441 234.999,314.861 254.415,290.441 254.415,289.859 
			234.999,314.17 215.377,289.859 215.377,290.441 		"/>
		<polygon opacity="0.1" enable-background="new    " points="231.23,331.226 238.562,331.226 238.597,331.465 231.195,331.465 		
			"/>
	</g>
</g>
</svg>
