<?xml version="1.0" encoding="utf-8"?>
<!-- Generator: Adobe Illustrator 17.0.0, SVG Export Plug-In . SVG Version: 6.00 Build 0)  -->
<!DOCTYPE svg PUBLIC "-//W3C//DTD SVG 1.0//EN" "http://www.w3.org/TR/2001/REC-SVG-20010904/DTD/svg10.dtd">
<svg version="1.0" id="Objects" xmlns="http://www.w3.org/2000/svg" xmlns:xlink="http://www.w3.org/1999/xlink" x="0px" y="0px"
	 width="478.476px" height="495.58px" viewBox="0 0 478.476 495.58" enable-background="new 0 0 478.476 495.58"
	 xml:space="preserve">
<circle fill="#D8D8D8" cx="239.238" cy="237.639" r="179"/>
<g>
	<path fill-rule="evenodd" clip-rule="evenodd" fill="#FFFFFF" d="M191.154,122.195l96.422,0.075
		c18.287,0.014,33.236,14.987,33.222,33.275l-0.203,259.339c-0.014,18.286-14.987,33.236-33.274,33.222l-96.421-0.075
		c-18.287-0.014-33.237-14.987-33.223-33.275l0.202-259.339C157.895,137.131,172.867,122.181,191.154,122.195z"/>
	
		<rect x="169.727" y="156.268" transform="matrix(-1 -7.738192e-04 7.738192e-04 -1 478.4035 559.2693)" fill-rule="evenodd" clip-rule="evenodd" fill="#15CDFF" width="139.166" height="246.549"/>
	<path fill-rule="evenodd" clip-rule="evenodd" fill="#B3B3B3" d="M208.117,140.205l62.603,0.05c1.701,0,3.093-1.389,3.095-3.091
		l0,0c0.001-1.701-1.389-3.094-3.09-3.094l-62.603-0.05c-1.701-0.001-3.093,1.389-3.095,3.091l0,0
		C205.026,138.812,206.416,140.204,208.117,140.205z"/>
	<polygon fill-rule="evenodd" clip-rule="evenodd" fill="#11C5EF" points="169.823,156.214 308.797,402.87 308.989,156.322 	"/>
	<path fill-rule="evenodd" clip-rule="evenodd" fill="#B3B3B3" d="M186.457,430.581l105.471,0.084
		c2.636,0.001,4.794-2.154,4.797-4.79l0,0c0.002-2.637-2.153-4.796-4.789-4.797l-105.471-0.082
		c-2.636-0.003-4.795,2.153-4.796,4.789v0.001C181.665,428.421,183.82,430.579,186.457,430.581z"/>
	<circle fill-rule="evenodd" clip-rule="evenodd" fill="#FFFFFF" cx="239.128" cy="425.83" r="18.765"/>
	<circle fill-rule="evenodd" clip-rule="evenodd" fill="#B3B3B3" cx="239.128" cy="425.83" r="13.225"/>
</g>
</svg>
