<?xml version="1.0" encoding="utf-8"?>
<!-- Generator: Adobe Illustrator 17.0.0, SVG Export Plug-In . SVG Version: 6.00 Build 0)  -->
<!DOCTYPE svg PUBLIC "-//W3C//DTD SVG 1.1//EN" "http://www.w3.org/Graphics/SVG/1.1/DTD/svg11.dtd">
<svg version="1.1" id="Objects" xmlns="http://www.w3.org/2000/svg" xmlns:xlink="http://www.w3.org/1999/xlink" x="0px" y="0px"
	 width="478.476px" height="495.58px" viewBox="0 0 478.476 495.58" enable-background="new 0 0 478.476 495.58"
	 xml:space="preserve">
<circle fill="#D8D8D8" cx="239.238" cy="237.639" r="179"/>
<g>
	
		<rect x="143.368" y="114.475" transform="matrix(-0.9026 0.4305 -0.4305 -0.9026 585.4332 393.0978)" fill-rule="evenodd" clip-rule="evenodd" fill="#FFFFFF" width="209.74" height="296.63"/>
	
		<rect x="148.273" y="157.348" transform="matrix(-0.9026 0.4305 -0.4305 -0.9026 447.8324 218.5753)" fill-rule="evenodd" clip-rule="evenodd" fill="#CCCCCC" width="101.825" height="5.221"/>
	
		<rect x="119.185" y="169.13" transform="matrix(-0.9026 0.4305 -0.4305 -0.9026 463.5989 238.5714)" fill-rule="evenodd" clip-rule="evenodd" fill="#CCCCCC" width="171.241" height="5.222"/>
	
		<rect x="123.119" y="177.378" transform="matrix(-0.9026 0.4305 -0.4305 -0.9026 474.6353 252.5685)" fill-rule="evenodd" clip-rule="evenodd" fill="#CCCCCC" width="171.241" height="5.222"/>
	
		<rect x="127.053" y="185.625" transform="matrix(-0.9026 0.4305 -0.4305 -0.9026 485.6721 266.5654)" fill-rule="evenodd" clip-rule="evenodd" fill="#CCCCCC" width="171.242" height="5.222"/>
	
		<rect x="130.988" y="193.873" transform="matrix(-0.9026 0.4305 -0.4305 -0.9026 496.708 280.5638)" fill-rule="evenodd" clip-rule="evenodd" fill="#CCCCCC" width="171.241" height="5.221"/>
	
		<rect x="134.922" y="202.12" transform="matrix(-0.9026 0.4305 -0.4305 -0.9026 507.7444 294.562)" fill-rule="evenodd" clip-rule="evenodd" fill="#CCCCCC" width="171.241" height="5.222"/>
	
		<rect x="138.857" y="210.368" transform="matrix(-0.9026 0.4305 -0.4305 -0.9026 518.7811 308.5582)" fill-rule="evenodd" clip-rule="evenodd" fill="#CCCCCC" width="171.24" height="5.222"/>
	
		<rect x="142.791" y="218.615" transform="matrix(-0.9026 0.4305 -0.4305 -0.9026 529.8167 322.5577)" fill-rule="evenodd" clip-rule="evenodd" fill="#CCCCCC" width="171.241" height="5.222"/>
	
		<rect x="146.725" y="226.864" transform="matrix(-0.9026 0.4305 -0.4305 -0.9026 540.8536 336.5551)" fill-rule="evenodd" clip-rule="evenodd" fill="#CCCCCC" width="171.241" height="5.222"/>
	
		<rect x="154.831" y="253.543" transform="matrix(-0.9026 0.4306 -0.4306 -0.9026 486.3139 402.2535)" fill-rule="evenodd" clip-rule="evenodd" fill="#CCCCCC" width="85.621" height="5.223"/>
	<g>
		<circle fill-rule="evenodd" clip-rule="evenodd" fill="#4C8EB4" cx="314.148" cy="253.674" r="22.206"/>
		<path fill-rule="evenodd" clip-rule="evenodd" fill="#9ACAE6" d="M311.101,275.672c-3.784-0.527-7.393-2.023-10.446-4.355
			l13.493-17.644L311.101,275.672z"/>
		<path fill-rule="evenodd" clip-rule="evenodd" fill="#87BBDA" d="M300.655,271.317c-2.709-2.069-4.981-4.794-6.55-8.082
			c-3.058-6.408-2.77-13.55,0.16-19.452l19.883,9.89L300.655,271.317z"/>
		<path fill-rule="evenodd" clip-rule="evenodd" fill="#73ACCD" d="M294.265,243.783c2.132-4.292,5.661-7.929,10.322-10.152
			l9.561,20.043L294.265,243.783z"/>
		<path fill-rule="evenodd" clip-rule="evenodd" fill="#609DC1" d="M304.587,233.631l9.561,20.043l7.579-20.871
			C316.328,230.842,310.178,230.963,304.587,233.631z"/>
	</g>
	<g>
		
			<rect x="186.417" y="319.227" transform="matrix(-0.9026 0.4305 -0.4305 -0.9026 589.6033 507.6368)" fill-rule="evenodd" clip-rule="evenodd" fill="#CCCCCC" width="101.895" height="2.606"/>
		
			<rect x="178.192" y="285.48" transform="matrix(-0.9026 0.4305 -0.4305 -0.9026 490.9095 514.4382)" fill-rule="evenodd" clip-rule="evenodd" fill="#4C8EB4" width="18.114" height="54.567"/>
		
			<rect x="201.525" y="296.035" transform="matrix(-0.9026 0.4305 -0.4305 -0.9026 535.4196 504.899)" fill-rule="evenodd" clip-rule="evenodd" fill="#609DC1" width="18.114" height="33.992"/>
		
			<rect x="222.907" y="297.968" transform="matrix(-0.9026 0.4305 -0.4305 -0.9026 574.4537 488.4229)" fill-rule="evenodd" clip-rule="evenodd" fill="#73ACCD" width="18.114" height="22.48"/>
		
			<rect x="239.542" y="278.923" transform="matrix(-0.9026 0.4306 -0.4306 -0.9026 600.178 455.0411)" fill-rule="evenodd" clip-rule="evenodd" fill="#87BBDA" width="18.114" height="33.022"/>
		
			<rect x="260.471" y="278.855" transform="matrix(-0.9026 0.4306 -0.4306 -0.9026 637.9422 436.952)" fill-rule="evenodd" clip-rule="evenodd" fill="#9ACAE6" width="18.114" height="23.613"/>
		
			<rect x="306.682" y="283.98" transform="matrix(-0.9026 0.4306 -0.4306 -0.9026 715.0116 408.7511)" fill-rule="evenodd" clip-rule="evenodd" fill="#CCCCCC" width="9.141" height="2.608"/>
		
			<rect x="317.877" y="274.343" transform="matrix(-0.9026 0.4306 -0.4306 -0.9026 749.2974 381.7185)" fill-rule="evenodd" clip-rule="evenodd" fill="#CCCCCC" width="27.155" height="2.607"/>
	</g>
	
		<rect x="192.792" y="333.917" transform="matrix(-0.9026 0.4305 -0.4305 -0.9026 586.4511 540.3434)" fill-rule="evenodd" clip-rule="evenodd" fill="#CCCCCC" width="78.589" height="5.222"/>
	
		<rect x="196.726" y="342.164" transform="matrix(-0.9026 0.4305 -0.4305 -0.9026 597.487 554.3411)" fill-rule="evenodd" clip-rule="evenodd" fill="#CCCCCC" width="78.589" height="5.222"/>
	
		<rect x="200.661" y="350.413" transform="matrix(-0.9026 0.4305 -0.4305 -0.9026 608.522 568.3411)" fill-rule="evenodd" clip-rule="evenodd" fill="#CCCCCC" width="78.588" height="5.221"/>
	
		<rect x="204.594" y="358.66" transform="matrix(-0.9026 0.4305 -0.4305 -0.9026 619.559 582.337)" fill-rule="evenodd" clip-rule="evenodd" fill="#CCCCCC" width="78.589" height="5.222"/>
	
		<rect x="208.528" y="366.908" transform="matrix(-0.9026 0.4305 -0.4305 -0.9026 630.5936 596.3372)" fill-rule="evenodd" clip-rule="evenodd" fill="#CCCCCC" width="78.59" height="5.222"/>
	
		<rect x="212.463" y="375.155" transform="matrix(-0.9026 0.4305 -0.4305 -0.9026 641.6313 610.3318)" fill-rule="evenodd" clip-rule="evenodd" fill="#CCCCCC" width="78.589" height="5.222"/>
	
		<rect x="216.397" y="383.402" transform="matrix(-0.9026 0.4305 -0.4305 -0.9026 652.6658 624.332)" fill-rule="evenodd" clip-rule="evenodd" fill="#CCCCCC" width="78.588" height="5.222"/>
	
		<rect x="222.246" y="400.109" transform="matrix(-0.9026 0.4306 -0.4306 -0.9026 633.6109 662.0521)" fill-rule="evenodd" clip-rule="evenodd" fill="#CCCCCC" width="39.294" height="5.222"/>
	
		<rect x="276.416" y="294.026" transform="matrix(-0.9026 0.4305 -0.4305 -0.9026 728.3755 428.4491)" fill-rule="evenodd" clip-rule="evenodd" fill="#CCCCCC" width="78.59" height="5.221"/>
	
		<rect x="280.351" y="302.274" transform="matrix(-0.9026 0.4305 -0.4305 -0.9026 739.4144 442.4409)" fill-rule="evenodd" clip-rule="evenodd" fill="#CCCCCC" width="78.589" height="5.222"/>
	
		<rect x="284.285" y="310.521" transform="matrix(-0.9026 0.4305 -0.4305 -0.9026 750.4498 456.4412)" fill-rule="evenodd" clip-rule="evenodd" fill="#CCCCCC" width="78.59" height="5.222"/>
	
		<rect x="288.22" y="318.769" transform="matrix(-0.9026 0.4305 -0.4305 -0.9026 761.4858 470.439)" fill-rule="evenodd" clip-rule="evenodd" fill="#CCCCCC" width="78.588" height="5.221"/>
	
		<rect x="292.154" y="327.016" transform="matrix(-0.9026 0.4305 -0.4305 -0.9026 772.5236 484.4341)" fill-rule="evenodd" clip-rule="evenodd" fill="#CCCCCC" width="78.589" height="5.222"/>
	
		<rect x="296.087" y="335.264" transform="matrix(-0.9026 0.4305 -0.4305 -0.9026 783.5573 498.4352)" fill-rule="evenodd" clip-rule="evenodd" fill="#CCCCCC" width="78.59" height="5.222"/>
	
		<rect x="300.023" y="343.512" transform="matrix(-0.9026 0.4305 -0.4305 -0.9026 794.5948 512.4326)" fill-rule="evenodd" clip-rule="evenodd" fill="#CCCCCC" width="78.588" height="5.222"/>
	
		<rect x="305.09" y="356.769" transform="matrix(-0.9026 0.4305 -0.4305 -0.9026 787.8043 540.4866)" fill-rule="evenodd" clip-rule="evenodd" fill="#CCCCCC" width="55.316" height="5.222"/>
</g>
</svg>
