<?xml version="1.0" encoding="utf-8"?>
<!-- Generator: Adobe Illustrator 17.0.0, SVG Export Plug-In . SVG Version: 6.00 Build 0)  -->
<!DOCTYPE svg PUBLIC "-//W3C//DTD SVG 1.0//EN" "http://www.w3.org/TR/2001/REC-SVG-20010904/DTD/svg10.dtd">
<svg version="1.0" id="Objects" xmlns="http://www.w3.org/2000/svg" xmlns:xlink="http://www.w3.org/1999/xlink" x="0px" y="0px"
	 width="478.476px" height="495.58px" viewBox="0 0 478.476 495.58" enable-background="new 0 0 478.476 495.58"
	 xml:space="preserve">
<g>
	<circle fill="#D8D8D8" cx="239.238" cy="237.639" r="179"/>
	<g>
		<g>
			<polygon fill="#EDE1CD" points="256.876,114.582 250.876,114.582 251.876,38.582 255.876,38.582 			"/>
			<rect x="209.876" y="113.582" fill="#EDE1CD" width="69" height="328"/>
			<rect x="209.876" y="113.582" fill="#D2C0A5" width="69" height="27.5"/>
			<g>
				
					<line fill="none" stroke="#A68B67" stroke-width="3" stroke-linecap="round" stroke-linejoin="round" stroke-miterlimit="10" x1="216.876" y1="147.082" x2="230.126" y2="147.082"/>
				
					<line fill="none" stroke="#A68B67" stroke-width="3" stroke-linecap="round" stroke-linejoin="round" stroke-miterlimit="10" x1="237.626" y1="147.082" x2="250.876" y2="147.082"/>
				
					<line fill="none" stroke="#A68B67" stroke-width="3" stroke-linecap="round" stroke-linejoin="round" stroke-miterlimit="10" x1="258.376" y1="147.082" x2="271.626" y2="147.082"/>
			</g>
			<g>
				
					<line fill="none" stroke="#A68B67" stroke-width="3" stroke-linecap="round" stroke-linejoin="round" stroke-miterlimit="10" x1="216.876" y1="158.582" x2="230.126" y2="158.582"/>
				
					<line fill="none" stroke="#A68B67" stroke-width="3" stroke-linecap="round" stroke-linejoin="round" stroke-miterlimit="10" x1="237.626" y1="158.582" x2="250.876" y2="158.582"/>
				
					<line fill="none" stroke="#A68B67" stroke-width="3" stroke-linecap="round" stroke-linejoin="round" stroke-miterlimit="10" x1="258.376" y1="158.582" x2="271.626" y2="158.582"/>
			</g>
			<g>
				
					<line fill="none" stroke="#A68B67" stroke-width="3" stroke-linecap="round" stroke-linejoin="round" stroke-miterlimit="10" x1="216.876" y1="170.082" x2="230.126" y2="170.082"/>
				
					<line fill="none" stroke="#A68B67" stroke-width="3" stroke-linecap="round" stroke-linejoin="round" stroke-miterlimit="10" x1="237.626" y1="170.082" x2="250.876" y2="170.082"/>
				
					<line fill="none" stroke="#A68B67" stroke-width="3" stroke-linecap="round" stroke-linejoin="round" stroke-miterlimit="10" x1="258.376" y1="170.082" x2="271.626" y2="170.082"/>
			</g>
			<g>
				
					<line fill="none" stroke="#A68B67" stroke-width="3" stroke-linecap="round" stroke-linejoin="round" stroke-miterlimit="10" x1="216.876" y1="181.582" x2="230.126" y2="181.582"/>
				
					<line fill="none" stroke="#A68B67" stroke-width="3" stroke-linecap="round" stroke-linejoin="round" stroke-miterlimit="10" x1="237.626" y1="181.582" x2="250.876" y2="181.582"/>
				
					<line fill="none" stroke="#A68B67" stroke-width="3" stroke-linecap="round" stroke-linejoin="round" stroke-miterlimit="10" x1="258.376" y1="181.582" x2="271.626" y2="181.582"/>
			</g>
			<g>
				
					<line fill="none" stroke="#A68B67" stroke-width="3" stroke-linecap="round" stroke-linejoin="round" stroke-miterlimit="10" x1="216.876" y1="193.082" x2="230.126" y2="193.082"/>
				
					<line fill="none" stroke="#A68B67" stroke-width="3" stroke-linecap="round" stroke-linejoin="round" stroke-miterlimit="10" x1="237.626" y1="193.082" x2="250.876" y2="193.082"/>
				
					<line fill="none" stroke="#A68B67" stroke-width="3" stroke-linecap="round" stroke-linejoin="round" stroke-miterlimit="10" x1="258.376" y1="193.082" x2="271.626" y2="193.082"/>
			</g>
			<g>
				
					<line fill="none" stroke="#A68B67" stroke-width="3" stroke-linecap="round" stroke-linejoin="round" stroke-miterlimit="10" x1="216.876" y1="204.582" x2="230.126" y2="204.582"/>
				
					<line fill="none" stroke="#A68B67" stroke-width="3" stroke-linecap="round" stroke-linejoin="round" stroke-miterlimit="10" x1="237.626" y1="204.582" x2="250.876" y2="204.582"/>
				
					<line fill="none" stroke="#A68B67" stroke-width="3" stroke-linecap="round" stroke-linejoin="round" stroke-miterlimit="10" x1="258.376" y1="204.582" x2="271.626" y2="204.582"/>
			</g>
			<g>
				
					<line fill="none" stroke="#A68B67" stroke-width="3" stroke-linecap="round" stroke-linejoin="round" stroke-miterlimit="10" x1="216.876" y1="258.248" x2="230.126" y2="258.248"/>
				
					<line fill="none" stroke="#A68B67" stroke-width="3" stroke-linecap="round" stroke-linejoin="round" stroke-miterlimit="10" x1="237.626" y1="258.248" x2="250.876" y2="258.248"/>
				
					<line fill="none" stroke="#A68B67" stroke-width="3" stroke-linecap="round" stroke-linejoin="round" stroke-miterlimit="10" x1="258.376" y1="258.248" x2="271.626" y2="258.248"/>
			</g>
			<g>
				
					<line fill="none" stroke="#A68B67" stroke-width="3" stroke-linecap="round" stroke-linejoin="round" stroke-miterlimit="10" x1="216.876" y1="269.748" x2="230.126" y2="269.748"/>
				
					<line fill="none" stroke="#A68B67" stroke-width="3" stroke-linecap="round" stroke-linejoin="round" stroke-miterlimit="10" x1="237.626" y1="269.748" x2="250.876" y2="269.748"/>
				
					<line fill="none" stroke="#A68B67" stroke-width="3" stroke-linecap="round" stroke-linejoin="round" stroke-miterlimit="10" x1="258.376" y1="269.748" x2="271.626" y2="269.748"/>
			</g>
			<g>
				
					<line fill="none" stroke="#A68B67" stroke-width="3" stroke-linecap="round" stroke-linejoin="round" stroke-miterlimit="10" x1="216.876" y1="282.248" x2="230.126" y2="282.248"/>
				
					<line fill="none" stroke="#A68B67" stroke-width="3" stroke-linecap="round" stroke-linejoin="round" stroke-miterlimit="10" x1="237.626" y1="282.248" x2="250.876" y2="282.248"/>
				
					<line fill="none" stroke="#A68B67" stroke-width="3" stroke-linecap="round" stroke-linejoin="round" stroke-miterlimit="10" x1="258.376" y1="282.248" x2="271.626" y2="282.248"/>
			</g>
			<g>
				
					<line fill="none" stroke="#A68B67" stroke-width="3" stroke-linecap="round" stroke-linejoin="round" stroke-miterlimit="10" x1="216.876" y1="294.748" x2="230.126" y2="294.748"/>
				
					<line fill="none" stroke="#A68B67" stroke-width="3" stroke-linecap="round" stroke-linejoin="round" stroke-miterlimit="10" x1="237.626" y1="294.748" x2="250.876" y2="294.748"/>
				
					<line fill="none" stroke="#A68B67" stroke-width="3" stroke-linecap="round" stroke-linejoin="round" stroke-miterlimit="10" x1="258.376" y1="294.748" x2="271.626" y2="294.748"/>
			</g>
			<g>
				
					<line fill="none" stroke="#A68B67" stroke-width="3" stroke-linecap="round" stroke-linejoin="round" stroke-miterlimit="10" x1="216.876" y1="307.248" x2="230.126" y2="307.248"/>
				
					<line fill="none" stroke="#A68B67" stroke-width="3" stroke-linecap="round" stroke-linejoin="round" stroke-miterlimit="10" x1="237.626" y1="307.248" x2="250.876" y2="307.248"/>
				
					<line fill="none" stroke="#A68B67" stroke-width="3" stroke-linecap="round" stroke-linejoin="round" stroke-miterlimit="10" x1="258.376" y1="307.248" x2="271.626" y2="307.248"/>
			</g>
			<g>
				
					<line fill="none" stroke="#A68B67" stroke-width="3" stroke-linecap="round" stroke-linejoin="round" stroke-miterlimit="10" x1="216.876" y1="319.748" x2="230.126" y2="319.748"/>
				
					<line fill="none" stroke="#A68B67" stroke-width="3" stroke-linecap="round" stroke-linejoin="round" stroke-miterlimit="10" x1="237.626" y1="319.748" x2="250.876" y2="319.748"/>
				
					<line fill="none" stroke="#A68B67" stroke-width="3" stroke-linecap="round" stroke-linejoin="round" stroke-miterlimit="10" x1="258.376" y1="319.748" x2="271.626" y2="319.748"/>
			</g>
			<g>
				
					<line fill="none" stroke="#A68B67" stroke-width="3" stroke-linecap="round" stroke-linejoin="round" stroke-miterlimit="10" x1="216.876" y1="332.248" x2="230.126" y2="332.248"/>
				
					<line fill="none" stroke="#A68B67" stroke-width="3" stroke-linecap="round" stroke-linejoin="round" stroke-miterlimit="10" x1="237.626" y1="332.248" x2="250.876" y2="332.248"/>
				
					<line fill="none" stroke="#A68B67" stroke-width="3" stroke-linecap="round" stroke-linejoin="round" stroke-miterlimit="10" x1="258.376" y1="332.248" x2="271.626" y2="332.248"/>
			</g>
			<g>
				
					<line fill="none" stroke="#A68B67" stroke-width="3" stroke-linecap="round" stroke-linejoin="round" stroke-miterlimit="10" x1="216.876" y1="344.748" x2="230.126" y2="344.748"/>
				
					<line fill="none" stroke="#A68B67" stroke-width="3" stroke-linecap="round" stroke-linejoin="round" stroke-miterlimit="10" x1="237.626" y1="344.748" x2="250.876" y2="344.748"/>
				
					<line fill="none" stroke="#A68B67" stroke-width="3" stroke-linecap="round" stroke-linejoin="round" stroke-miterlimit="10" x1="258.376" y1="344.748" x2="271.626" y2="344.748"/>
			</g>
			<g>
				
					<line fill="none" stroke="#A68B67" stroke-width="3" stroke-linecap="round" stroke-linejoin="round" stroke-miterlimit="10" x1="216.876" y1="357.248" x2="230.126" y2="357.248"/>
				
					<line fill="none" stroke="#A68B67" stroke-width="3" stroke-linecap="round" stroke-linejoin="round" stroke-miterlimit="10" x1="237.626" y1="357.248" x2="250.876" y2="357.248"/>
				
					<line fill="none" stroke="#A68B67" stroke-width="3" stroke-linecap="round" stroke-linejoin="round" stroke-miterlimit="10" x1="258.376" y1="357.248" x2="271.626" y2="357.248"/>
			</g>
			<g>
				
					<line fill="none" stroke="#A68B67" stroke-width="3" stroke-linecap="round" stroke-linejoin="round" stroke-miterlimit="10" x1="216.876" y1="369.748" x2="230.126" y2="369.748"/>
				
					<line fill="none" stroke="#A68B67" stroke-width="3" stroke-linecap="round" stroke-linejoin="round" stroke-miterlimit="10" x1="237.626" y1="369.748" x2="250.876" y2="369.748"/>
				
					<line fill="none" stroke="#A68B67" stroke-width="3" stroke-linecap="round" stroke-linejoin="round" stroke-miterlimit="10" x1="258.376" y1="369.748" x2="271.626" y2="369.748"/>
			</g>
			<g>
				
					<line fill="none" stroke="#A68B67" stroke-width="3" stroke-linecap="round" stroke-linejoin="round" stroke-miterlimit="10" x1="216.876" y1="382.248" x2="230.126" y2="382.248"/>
				
					<line fill="none" stroke="#A68B67" stroke-width="3" stroke-linecap="round" stroke-linejoin="round" stroke-miterlimit="10" x1="237.626" y1="382.248" x2="250.876" y2="382.248"/>
				
					<line fill="none" stroke="#A68B67" stroke-width="3" stroke-linecap="round" stroke-linejoin="round" stroke-miterlimit="10" x1="258.376" y1="382.248" x2="271.626" y2="382.248"/>
			</g>
			<g>
				
					<line fill="none" stroke="#A68B67" stroke-width="3" stroke-linecap="round" stroke-linejoin="round" stroke-miterlimit="10" x1="216.876" y1="394.748" x2="230.126" y2="394.748"/>
				
					<line fill="none" stroke="#A68B67" stroke-width="3" stroke-linecap="round" stroke-linejoin="round" stroke-miterlimit="10" x1="237.626" y1="394.748" x2="250.876" y2="394.748"/>
				
					<line fill="none" stroke="#A68B67" stroke-width="3" stroke-linecap="round" stroke-linejoin="round" stroke-miterlimit="10" x1="258.376" y1="394.748" x2="271.626" y2="394.748"/>
			</g>
			<g>
				
					<line fill="none" stroke="#A68B67" stroke-width="3" stroke-linecap="round" stroke-linejoin="round" stroke-miterlimit="10" x1="216.876" y1="407.248" x2="230.126" y2="407.248"/>
				
					<line fill="none" stroke="#A68B67" stroke-width="3" stroke-linecap="round" stroke-linejoin="round" stroke-miterlimit="10" x1="237.626" y1="407.248" x2="250.876" y2="407.248"/>
				
					<line fill="none" stroke="#A68B67" stroke-width="3" stroke-linecap="round" stroke-linejoin="round" stroke-miterlimit="10" x1="258.376" y1="407.248" x2="271.626" y2="407.248"/>
			</g>
			<g>
				
					<line fill="none" stroke="#A68B67" stroke-width="3" stroke-linecap="round" stroke-linejoin="round" stroke-miterlimit="10" x1="216.876" y1="419.748" x2="230.126" y2="419.748"/>
				
					<line fill="none" stroke="#A68B67" stroke-width="3" stroke-linecap="round" stroke-linejoin="round" stroke-miterlimit="10" x1="237.626" y1="419.748" x2="250.876" y2="419.748"/>
				
					<line fill="none" stroke="#A68B67" stroke-width="3" stroke-linecap="round" stroke-linejoin="round" stroke-miterlimit="10" x1="258.376" y1="419.748" x2="271.626" y2="419.748"/>
			</g>
			<rect x="209.876" y="211.582" fill="#D2C0A5" width="69" height="5"/>
			<rect x="209.876" y="246.248" fill="#D2C0A5" width="69" height="5"/>
			<rect x="237.626" y="432.082" fill="#B39A7B" width="13.25" height="9.5"/>
			<rect x="244.251" y="113.582" opacity="0.2" fill="#4D5A85" width="34.625" height="328"/>
		</g>
		<g>
			<path fill="#54C3CF" d="M219.616,238.146c0,1.833-1.486,3.319-3.319,3.319h-34.342c-1.833,0-3.319-1.486-3.319-3.319v-32.413
				c0-1.833,1.486-3.319,3.319-3.319h34.342c1.833,0,3.319,1.486,3.319,3.319V238.146z"/>
			<polygon fill="#82E4F4" points="235.376,441.915 162.876,441.915 162.876,222.082 186.96,222.082 186.96,219.332 
				211.293,219.332 211.293,222.082 235.376,222.082 			"/>
			<rect x="162.876" y="416.582" fill="#54C3CF" width="72.5" height="25.333"/>
			<g>
				<line fill="none" stroke="#FFFFFF" stroke-miterlimit="10" x1="186.96" y1="227.915" x2="211.293" y2="227.915"/>
				<line fill="none" stroke="#FFFFFF" stroke-miterlimit="10" x1="186.96" y1="237.248" x2="211.293" y2="237.248"/>
				<line fill="none" stroke="#FFFFFF" stroke-miterlimit="10" x1="186.96" y1="246.582" x2="211.293" y2="246.582"/>
				<line fill="none" stroke="#FFFFFF" stroke-miterlimit="10" x1="186.96" y1="255.915" x2="211.293" y2="255.915"/>
				<line fill="none" stroke="#FFFFFF" stroke-miterlimit="10" x1="186.96" y1="265.248" x2="211.293" y2="265.248"/>
				<line fill="none" stroke="#FFFFFF" stroke-miterlimit="10" x1="186.96" y1="274.582" x2="211.293" y2="274.582"/>
				<line fill="none" stroke="#FFFFFF" stroke-miterlimit="10" x1="186.96" y1="283.915" x2="211.293" y2="283.915"/>
				<line fill="none" stroke="#FFFFFF" stroke-miterlimit="10" x1="186.96" y1="293.248" x2="211.293" y2="293.248"/>
				<line fill="none" stroke="#FFFFFF" stroke-miterlimit="10" x1="186.96" y1="302.582" x2="211.293" y2="302.582"/>
				<line fill="none" stroke="#FFFFFF" stroke-miterlimit="10" x1="186.96" y1="311.915" x2="211.293" y2="311.915"/>
				<line fill="none" stroke="#FFFFFF" stroke-miterlimit="10" x1="186.96" y1="321.248" x2="211.293" y2="321.248"/>
				<line fill="none" stroke="#FFFFFF" stroke-miterlimit="10" x1="186.96" y1="330.582" x2="211.293" y2="330.582"/>
				<line fill="none" stroke="#FFFFFF" stroke-miterlimit="10" x1="186.96" y1="339.915" x2="211.293" y2="339.915"/>
				<line fill="none" stroke="#FFFFFF" stroke-miterlimit="10" x1="186.96" y1="349.248" x2="211.293" y2="349.248"/>
				<line fill="none" stroke="#FFFFFF" stroke-miterlimit="10" x1="186.96" y1="358.582" x2="211.293" y2="358.582"/>
				<line fill="none" stroke="#FFFFFF" stroke-miterlimit="10" x1="186.96" y1="367.915" x2="211.293" y2="367.915"/>
				<line fill="none" stroke="#FFFFFF" stroke-miterlimit="10" x1="186.96" y1="377.248" x2="211.293" y2="377.248"/>
				<line fill="none" stroke="#FFFFFF" stroke-miterlimit="10" x1="186.96" y1="386.582" x2="211.293" y2="386.582"/>
				<line fill="none" stroke="#FFFFFF" stroke-miterlimit="10" x1="186.96" y1="395.915" x2="211.293" y2="395.915"/>
				<line fill="none" stroke="#FFFFFF" stroke-miterlimit="10" x1="186.96" y1="405.248" x2="211.293" y2="405.248"/>
			</g>
			<g>
				<line fill="none" stroke="#FFFFFF" stroke-miterlimit="10" x1="211.293" y1="230.915" x2="235.626" y2="230.915"/>
				<line fill="none" stroke="#FFFFFF" stroke-miterlimit="10" x1="211.293" y1="240.248" x2="235.626" y2="240.248"/>
				<line fill="none" stroke="#FFFFFF" stroke-miterlimit="10" x1="211.293" y1="249.582" x2="235.626" y2="249.582"/>
				<line fill="none" stroke="#FFFFFF" stroke-miterlimit="10" x1="211.293" y1="258.915" x2="235.626" y2="258.915"/>
				<line fill="none" stroke="#FFFFFF" stroke-miterlimit="10" x1="211.293" y1="268.248" x2="235.626" y2="268.248"/>
				<line fill="none" stroke="#FFFFFF" stroke-miterlimit="10" x1="211.293" y1="277.582" x2="235.626" y2="277.582"/>
				<line fill="none" stroke="#FFFFFF" stroke-miterlimit="10" x1="211.293" y1="286.915" x2="235.626" y2="286.915"/>
				<line fill="none" stroke="#FFFFFF" stroke-miterlimit="10" x1="211.293" y1="296.248" x2="235.626" y2="296.248"/>
				<line fill="none" stroke="#FFFFFF" stroke-miterlimit="10" x1="211.293" y1="305.582" x2="235.626" y2="305.582"/>
				<line fill="none" stroke="#FFFFFF" stroke-miterlimit="10" x1="211.293" y1="314.915" x2="235.626" y2="314.915"/>
				<line fill="none" stroke="#FFFFFF" stroke-miterlimit="10" x1="211.293" y1="324.248" x2="235.626" y2="324.248"/>
				<line fill="none" stroke="#FFFFFF" stroke-miterlimit="10" x1="211.293" y1="333.582" x2="235.626" y2="333.582"/>
				<line fill="none" stroke="#FFFFFF" stroke-miterlimit="10" x1="211.293" y1="342.915" x2="235.626" y2="342.915"/>
				<line fill="none" stroke="#FFFFFF" stroke-miterlimit="10" x1="211.293" y1="352.248" x2="235.626" y2="352.248"/>
				<line fill="none" stroke="#FFFFFF" stroke-miterlimit="10" x1="211.293" y1="361.582" x2="235.626" y2="361.582"/>
				<line fill="none" stroke="#FFFFFF" stroke-miterlimit="10" x1="211.293" y1="370.915" x2="235.626" y2="370.915"/>
				<line fill="none" stroke="#FFFFFF" stroke-miterlimit="10" x1="211.293" y1="380.248" x2="235.626" y2="380.248"/>
				<line fill="none" stroke="#FFFFFF" stroke-miterlimit="10" x1="211.293" y1="389.582" x2="235.626" y2="389.582"/>
				<line fill="none" stroke="#FFFFFF" stroke-miterlimit="10" x1="211.293" y1="398.915" x2="235.626" y2="398.915"/>
				<line fill="none" stroke="#FFFFFF" stroke-miterlimit="10" x1="211.293" y1="408.248" x2="235.626" y2="408.248"/>
			</g>
			<g>
				<line fill="none" stroke="#FFFFFF" stroke-miterlimit="10" x1="162.876" y1="230.915" x2="186.918" y2="230.915"/>
				<line fill="none" stroke="#FFFFFF" stroke-miterlimit="10" x1="162.876" y1="240.248" x2="186.918" y2="240.248"/>
				<line fill="none" stroke="#FFFFFF" stroke-miterlimit="10" x1="162.876" y1="249.582" x2="186.918" y2="249.582"/>
				<line fill="none" stroke="#FFFFFF" stroke-miterlimit="10" x1="162.876" y1="258.915" x2="186.918" y2="258.915"/>
				<line fill="none" stroke="#FFFFFF" stroke-miterlimit="10" x1="162.876" y1="268.248" x2="186.918" y2="268.248"/>
				<line fill="none" stroke="#FFFFFF" stroke-miterlimit="10" x1="162.876" y1="277.582" x2="186.918" y2="277.582"/>
				<line fill="none" stroke="#FFFFFF" stroke-miterlimit="10" x1="162.876" y1="286.915" x2="186.918" y2="286.915"/>
				<line fill="none" stroke="#FFFFFF" stroke-miterlimit="10" x1="162.876" y1="296.248" x2="186.918" y2="296.248"/>
				<line fill="none" stroke="#FFFFFF" stroke-miterlimit="10" x1="162.876" y1="305.582" x2="186.918" y2="305.582"/>
				<line fill="none" stroke="#FFFFFF" stroke-miterlimit="10" x1="162.876" y1="314.915" x2="186.918" y2="314.915"/>
				<line fill="none" stroke="#FFFFFF" stroke-miterlimit="10" x1="162.876" y1="324.248" x2="186.918" y2="324.248"/>
				<line fill="none" stroke="#FFFFFF" stroke-miterlimit="10" x1="162.876" y1="333.582" x2="186.918" y2="333.582"/>
				<line fill="none" stroke="#FFFFFF" stroke-miterlimit="10" x1="162.876" y1="342.915" x2="186.918" y2="342.915"/>
				<line fill="none" stroke="#FFFFFF" stroke-miterlimit="10" x1="162.876" y1="352.248" x2="186.918" y2="352.248"/>
				<line fill="none" stroke="#FFFFFF" stroke-miterlimit="10" x1="162.876" y1="361.582" x2="186.918" y2="361.582"/>
				<line fill="none" stroke="#FFFFFF" stroke-miterlimit="10" x1="162.876" y1="370.915" x2="186.918" y2="370.915"/>
				<line fill="none" stroke="#FFFFFF" stroke-miterlimit="10" x1="162.876" y1="380.248" x2="186.918" y2="380.248"/>
				<line fill="none" stroke="#FFFFFF" stroke-miterlimit="10" x1="162.876" y1="389.582" x2="186.918" y2="389.582"/>
				<line fill="none" stroke="#FFFFFF" stroke-miterlimit="10" x1="162.876" y1="398.915" x2="186.918" y2="398.915"/>
				<line fill="none" stroke="#FFFFFF" stroke-miterlimit="10" x1="162.876" y1="408.248" x2="186.918" y2="408.248"/>
			</g>
			<rect x="177.21" y="426.748" fill="#2AAAB0" width="43.833" height="15.167"/>
			<g>
				<line fill="none" stroke="#54C3CF" stroke-miterlimit="10" x1="186.96" y1="216.551" x2="186.96" y2="416.582"/>
				<line fill="none" stroke="#54C3CF" stroke-miterlimit="10" x1="211.293" y1="216.582" x2="211.293" y2="416.582"/>
			</g>
			<path opacity="0.2" fill="#4D5A85" d="M197.876,202.415v239.5h37.5V222.082h-15.76c0,0,0-14,0-16.042
				c0-2.292-1.448-3.609-2.99-3.609S197.876,202.415,197.876,202.415z"/>
		</g>
		<g>
			<rect x="271.335" y="325.332" fill="#245778" width="49.75" height="10.583"/>
			<rect x="260.21" y="333.582" fill="#245778" width="72" height="108.333"/>
			<rect x="260.21" y="419.582" fill="#2C6B8F" width="72" height="22.333"/>
			<path fill="#71E5FF" d="M329.626,343.415c0,2.117-1.716,3.833-3.833,3.833h-59.167c-2.117,0-3.833-1.716-3.833-3.833l0,0
				c0-2.117,1.716-3.833,3.833-3.833h59.167C327.91,339.582,329.626,341.298,329.626,343.415L329.626,343.415z"/>
			<path fill="#71E5FF" d="M329.626,354.415c0,2.117-1.716,3.833-3.833,3.833h-59.167c-2.117,0-3.833-1.716-3.833-3.833l0,0
				c0-2.117,1.716-3.833,3.833-3.833h59.167C327.91,350.582,329.626,352.298,329.626,354.415L329.626,354.415z"/>
			<path fill="#71E5FF" d="M329.626,365.415c0,2.117-1.716,3.833-3.833,3.833h-59.167c-2.117,0-3.833-1.716-3.833-3.833l0,0
				c0-2.117,1.716-3.833,3.833-3.833h59.167C327.91,361.582,329.626,363.298,329.626,365.415L329.626,365.415z"/>
			<path fill="#71E5FF" d="M329.626,376.415c0,2.117-1.716,3.833-3.833,3.833h-59.167c-2.117,0-3.833-1.716-3.833-3.833l0,0
				c0-2.117,1.716-3.833,3.833-3.833h59.167C327.91,372.582,329.626,374.298,329.626,376.415L329.626,376.415z"/>
			<path fill="#71E5FF" d="M329.626,387.415c0,2.117-1.716,3.833-3.833,3.833h-59.167c-2.117,0-3.833-1.716-3.833-3.833l0,0
				c0-2.117,1.716-3.833,3.833-3.833h59.167C327.91,383.582,329.626,385.298,329.626,387.415L329.626,387.415z"/>
			<path fill="#71E5FF" d="M329.626,398.415c0,2.117-1.716,3.833-3.833,3.833h-59.167c-2.117,0-3.833-1.716-3.833-3.833l0,0
				c0-2.117,1.716-3.833,3.833-3.833h59.167C327.91,394.582,329.626,396.298,329.626,398.415L329.626,398.415z"/>
			<path fill="#71E5FF" d="M329.626,409.415c0,2.117-1.716,3.833-3.833,3.833h-59.167c-2.117,0-3.833-1.716-3.833-3.833l0,0
				c0-2.117,1.716-3.833,3.833-3.833h59.167C327.91,405.582,329.626,407.298,329.626,409.415L329.626,409.415z"/>
			<g>
				<rect x="278.877" y="329.165" fill="#2C6B8F" width="34.666" height="91.416"/>
				<path fill="#245778" d="M312.543,330.165v89.417h-32.667v-89.417H312.543 M314.543,328.165h-2h-32.667h-2v2v89.417v2h2h32.667h2
					v-2v-89.417V328.165L314.543,328.165z"/>
			</g>
			<g>
				<rect x="279.876" y="336.582" fill="#71E5FF" width="32.667" height="7.667"/>
				<rect x="279.876" y="347.582" fill="#71E5FF" width="32.667" height="7.667"/>
				<rect x="279.876" y="358.582" fill="#71E5FF" width="32.667" height="7.667"/>
				<rect x="279.876" y="369.582" fill="#71E5FF" width="32.667" height="7.667"/>
				<rect x="279.876" y="380.581" fill="#71E5FF" width="32.667" height="7.667"/>
				<rect x="279.876" y="391.581" fill="#71E5FF" width="32.667" height="7.667"/>
				<rect x="279.876" y="402.581" fill="#71E5FF" width="32.667" height="7.667"/>
			</g>
			<rect x="276.21" y="419.582" fill="#3789B3" width="40" height="22.333"/>
			<rect x="288.835" y="429.748" fill="#245778" width="14.75" height="12.167"/>
			<polygon opacity="0.2" fill="#4D5A85" points="296.21,324.695 296.21,441.915 332.21,441.915 332.21,333.582 320.876,333.582 
				321.085,325.332 			"/>
		</g>
		<path fill="#66D1F2" d="M390.022,445.456c0-2.37-0.836-4.292-1.867-4.292H92.931c-1.031,0-1.867,1.921-1.867,4.292l0,0
			c0,2.37,0.836,4.292,1.867,4.292h295.224C389.186,449.748,390.022,447.827,390.022,445.456L390.022,445.456z"/>
		<path fill="#47A4CA" d="M394.263,444.415H84.213c-3.023,0-5.473,5.634-5.473,12.583h320.995
			C399.736,450.049,397.285,444.415,394.263,444.415z"/>
	</g>
</g>
</svg>
