<?xml version="1.0" encoding="utf-8"?>
<!-- Generator: Adobe Illustrator 17.0.0, SVG Export Plug-In . SVG Version: 6.00 Build 0)  -->
<!DOCTYPE svg PUBLIC "-//W3C//DTD SVG 1.0//EN" "http://www.w3.org/TR/2001/REC-SVG-20010904/DTD/svg10.dtd">
<svg version="1.0" id="Camada_1" xmlns="http://www.w3.org/2000/svg" xmlns:xlink="http://www.w3.org/1999/xlink" x="0px" y="0px"
	 width="841.89px" height="140px" viewBox="0 0 841.89 140" enable-background="new 0 0 841.89 140" xml:space="preserve">
<g>
	<path fill="#FFFFFF" d="M4.787,55.932V41.985h15.515v-26.41h16.3v26.41H60.31v13.947H36.601v51.483
		c0,6.934,4.386,10.403,13.162,10.403c0.056,0,0.115,0,0.173,0c4.067,0,7.526-0.868,10.373-2.601v14.771
		c-4.068,1.65-8.137,2.473-12.204,2.473c-0.117,0-0.261,0-0.436,0c-2.15,0-4.444-0.263-6.885-0.782
		c-2.441-0.522-5.359-1.552-8.759-3.089c-3.399-1.533-6.205-4.202-8.411-8.002c-2.21-3.796-3.313-8.505-3.313-14.132V55.932H4.787z"
		/>
	<path fill="#FFFFFF" d="M68.123,131.067V49.479c14.874-5.927,29.344-8.889,43.408-8.889v14.992
		c-8.862,0.117-17.898,1.364-27.109,3.747v71.737H68.123z"/>
	<path fill="#FFFFFF" d="M110.627,102.912c0-8.806,3.721-15.684,11.166-20.637c7.444-4.954,17.708-7.43,30.795-7.43
		c5.566,0,10.96,0.35,16.178,1.045c-0.35-7.494-2.394-12.869-6.134-16.124c-3.74-3.255-9.871-4.882-18.396-4.882
		c-7.729,0-15.953,1.481-24.67,4.446V45.382c8.424-3.195,17.401-4.792,26.931-4.792c12.418,0,22.007,3.21,28.771,9.629
		c6.765,6.423,10.146,15.646,10.146,27.677v25.711c0,1.921-0.19,3.822-0.569,5.709c-0.378,1.89-1.283,4.315-2.712,7.28
		c-1.428,2.962-3.368,5.551-5.816,7.757c-2.449,2.21-6.124,4.112-11.023,5.709c-4.897,1.597-10.554,2.398-16.969,2.398
		c-6.573,0-12.333-0.831-17.277-2.492c-4.944-1.661-8.669-3.601-11.168-5.814c-2.503-2.214-4.495-4.837-5.978-7.866
		c-1.485-3.033-2.402-5.536-2.751-7.521C110.802,106.787,110.627,104.833,110.627,102.912z M126.927,102.736
		c0,10.054,7.132,15.083,21.397,15.083c0.058,0,0.145,0,0.261,0c13.453,0,20.181-4.826,20.181-14.474V88.957
		c-4.292-0.692-9.452-1.067-15.483-1.124c-2.377,0-4.871,0.214-7.481,0.65c-2.61,0.432-5.422,1.112-8.438,2.037
		c-3.014,0.925-5.508,2.454-7.481,4.593C127.912,97.248,126.927,99.793,126.927,102.736z"/>
	<path fill="#FFFFFF" d="M191.92,85.398c0-8.832,1.221-16.345,3.664-22.535c2.443-6.19,5.773-10.824,9.99-13.902
		c4.217-3.082,8.535-5.247,12.955-6.498c4.422-1.248,9.191-1.872,14.31-1.872c6.436,0,12.786,0.883,19.049,2.646V8.253h16.3v95.396
		c0,1.917-0.19,3.819-0.568,5.702c-0.376,1.887-1.276,4.311-2.699,7.269c-1.423,2.962-3.352,5.544-5.79,7.746
		c-2.437,2.206-6.066,4.104-10.882,5.702c-4.818,1.594-10.42,2.394-16.804,2.394c-3.431,0-6.733-0.293-9.903-0.872
		c-3.172-0.579-6.632-1.887-10.384-3.92c-3.753-2.033-6.966-4.679-9.64-7.93c-2.676-3.255-4.946-7.833-6.806-13.729
		C192.85,100.112,191.92,93.242,191.92,85.398z M208.22,85.398c0,6.878,0.652,12.583,1.958,17.12
		c1.304,4.536,3.174,7.844,5.611,9.926c2.434,2.078,4.841,3.495,7.218,4.247c2.379,0.752,5.19,1.128,8.44,1.128
		c13.686,0,20.5-4.424,20.442-13.263V58.961c-6.032-2.484-12.382-3.728-19.049-3.728c-3.539,0-6.626,0.346-9.266,1.041
		c-2.638,0.692-5.205,2.022-7.699,3.984c-2.494,1.966-4.392,5.044-5.696,9.234C208.872,73.683,208.22,78.982,208.22,85.398z"/>
	<path fill="#FFFFFF" d="M276.087,87.582c0-31.326,13.104-46.991,39.311-46.991c0.058,0,0.116,0,0.175,0
		c11.912,0,21.427,3.89,28.547,11.674c7.117,7.78,10.678,18.202,10.678,31.27c0,4.247-0.177,8.325-0.524,12.23h-61.536
		c1.975,15.285,10.341,22.926,25.102,22.926c12.029,0,22.284-2.236,30.768-6.701v14.842c-9.182,3.871-19.553,5.803-31.116,5.803
		c-0.175,0-0.35,0-0.524,0c-5.23,0-10.054-0.654-14.468-1.962c-4.418-1.312-8.716-3.48-12.895-6.506
		c-4.181-3.026-7.479-7.671-9.894-13.929C277.296,103.983,276.087,96.429,276.087,87.582z M292.476,81.121h45.761
		c-0.233-2.965-0.74-5.795-1.526-8.498c-0.784-2.702-1.975-5.45-3.574-8.238c-1.597-2.789-3.909-5.01-6.929-6.667
		c-3.022-1.657-6.624-2.484-10.809-2.484c-7.496,0-13.002,1.932-16.516,5.795C295.364,64.896,293.23,71.59,292.476,81.121z"/>
	<path fill="#66BAE9" d="M361.39,103.698c0-4.006,0.74-7.596,2.223-10.768c1.481-3.176,3.296-5.75,5.448-7.724
		c2.148-1.973,4.88-3.661,8.193-5.063c3.311-1.398,6.246-2.428,8.804-3.086c2.556-0.658,5.591-1.161,9.109-1.503
		c3.514-0.342,6.013-0.545,7.496-0.601c1.481-0.056,3.238-0.086,5.273-0.086l14.295,0.849c0-8.084-2.191-13.854-6.57-17.307
		c-4.379-3.454-10.862-5.179-19.446-5.179c-9.642,0-18.324,1.424-26.05,4.27V45.036c8.77-3.082,17.685-4.623,26.747-4.623
		c12.478,0,21.994,3.153,28.555,9.46c6.558,6.303,9.838,15.53,9.838,27.673v26.76c0,5.694-1.321,10.561-3.961,14.601
		c-2.64,4.037-6.036,6.957-10.185,8.757c-4.151,1.804-8.041,3.052-11.668,3.751c-3.629,0.695-7.212,1.045-10.751,1.045
		c-2.736,0-5.542-0.177-8.421-0.526c-2.881-0.35-6.139-1.15-9.776-2.402c-3.636-1.255-6.791-2.856-9.467-4.811
		c-2.676-1.951-4.959-4.751-6.85-8.393C362.336,112.688,361.39,108.475,361.39,103.698z M374.291,103.698
		c0,11.099,8.062,16.646,24.187,16.646c0.058,0,0.145,0,0.261,0c15.776,0,23.665-5.375,23.665-16.127V87.134
		c-3.943-0.695-9.221-1.045-15.834-1.045C385.049,86.09,374.291,91.96,374.291,103.698z"/>
	<path fill="#66BAE9" d="M442.683,85.391c0-8.832,1.193-16.342,3.578-22.532c2.385-6.186,5.685-10.82,9.902-13.902
		c4.217-3.078,8.507-5.243,12.869-6.495c4.364-1.248,9.161-1.872,14.397-1.872c7.831,0,15.197,1.131,22.101,3.398V8.076h12.901
		v96.403c0,2.383-0.351,4.826-1.049,7.321c-0.697,2.499-2.152,5.48-4.363,8.938c-2.212,3.458-5.993,6.273-11.347,8.453
		c-5.352,2.18-11.956,3.27-19.811,3.27c-3.315,0-6.558-0.293-9.729-0.872c-3.17-0.579-6.604-1.887-10.296-3.924
		c-3.695-2.033-6.88-4.675-9.554-7.93c-2.676-3.255-4.946-7.829-6.806-13.729C443.613,100.108,442.683,93.238,442.683,85.391z
		 M455.584,85.391c0,7.498,0.812,13.775,2.437,18.83c1.624,5.055,3.856,8.686,6.699,10.896c2.841,2.206,5.568,3.691,8.18,4.442
		c2.608,0.759,5.596,1.135,8.96,1.135c15.778,0,23.669-5.232,23.669-15.691V56.8c-7.252-2.962-14.618-4.442-22.101-4.442
		c-9.746,0-16.823,2.612-21.231,7.844C457.788,65.43,455.584,73.83,455.584,85.391z"/>
	<path fill="#66BAE9" d="M523.192,41.985h13.686l26.933,73.041l27.021-73.041h13.684l-34.256,89.082h-12.987L523.192,41.985z"/>
	<path fill="#66BAE9" d="M611.633,26.293V12h14.295v14.293H611.633z M612.33,131.067h12.901V41.985H612.33V131.067z"/>
	<path fill="#66BAE9" d="M635.395,66.163c0-7.107,2.601-13.177,7.802-18.206c5.2-5.029,13.147-7.543,23.84-7.543
		c7.611,0,15.223,1.808,22.836,5.416v12.82c-6.799-4.078-13.946-6.119-21.442-6.119c-13.423,0-20.136,4.544-20.136,13.632
		c0,3.089,1.625,5.581,4.882,7.475c3.253,1.89,7.233,3.465,11.94,4.717c4.707,1.255,9.413,2.755,14.12,4.503
		c4.707,1.748,8.703,4.706,11.986,8.87c3.283,4.164,4.925,9.482,4.925,15.947c0,7.739-2.892,13.805-8.674,18.198
		c-5.782,4.394-13.786,6.589-24.013,6.589c-9.879,0-18.858-2.236-26.935-6.713v-13.617c8.543,5.243,17.347,7.863,26.41,7.863
		c13.54,0,20.31-4.104,20.31-12.32c0-4.427-1.627-7.893-4.882-10.4c-3.255-2.503-7.233-4.382-11.94-5.638
		c-4.707-1.252-9.415-2.62-14.12-4.104c-4.707-1.488-8.703-3.995-11.986-7.517C637.038,76.491,635.395,71.872,635.395,66.163z"/>
	<path fill="#66BAE9" d="M702.306,109.58c-2.499-6.363-3.749-14.075-3.749-23.141s1.25-16.781,3.749-23.144
		c2.497-6.363,5.897-11.114,10.198-14.252c4.3-3.138,8.673-5.359,13.117-6.667c4.446-1.308,9.357-1.962,14.731-1.962
		s10.315,0.654,14.818,1.962c4.503,1.308,8.906,3.529,13.205,6.667c4.3,3.138,7.699,7.889,10.198,14.252
		c2.497,6.363,3.749,14.079,3.749,23.144s-1.252,16.778-3.749,23.141c-2.499,6.363-5.899,11.114-10.198,14.252
		s-8.703,5.359-13.205,6.667c-4.503,1.308-9.443,1.962-14.818,1.962s-10.285-0.654-14.731-1.962
		c-4.444-1.308-8.817-3.529-13.117-6.667C708.203,120.693,704.804,115.943,702.306,109.58z M718.344,60.375
		c-4.591,5.465-6.885,14.15-6.885,26.065c0,11.91,2.294,20.6,6.885,26.061c4.591,5.461,11.942,8.193,22.052,8.193
		c10.112,0,17.477-2.702,22.098-8.107c4.619-5.405,6.929-14.12,6.929-26.147c0-12.031-2.31-20.746-6.929-26.151
		c-4.621-5.405-11.986-8.107-22.098-8.107C730.286,52.181,722.934,54.914,718.344,60.375z"/>
	<path fill="#66BAE9" d="M791.097,131.067V49.009c13.423-5.611,27.833-8.419,43.233-8.419v12.113
		c-9.736,0.237-19.846,1.778-30.334,4.63v73.733H791.097z"/>
</g>
</svg>
