<?xml version="1.0" encoding="utf-8"?>
<!-- Generator: Adobe Illustrator 17.0.0, SVG Export Plug-In . SVG Version: 6.00 Build 0)  -->
<!DOCTYPE svg PUBLIC "-//W3C//DTD SVG 1.1//EN" "http://www.w3.org/Graphics/SVG/1.1/DTD/svg11.dtd">
<svg version="1.1" id="Camada_1" xmlns="http://www.w3.org/2000/svg" xmlns:xlink="http://www.w3.org/1999/xlink" x="0px" y="0px"
	 width="841.89px" height="290px" viewBox="0 0 841.89 290" enable-background="new 0 0 841.89 290" xml:space="preserve">
<g>
	<path fill-rule="evenodd" clip-rule="evenodd" fill="#22445B" d="M55.587,141.731c-16.856,0-30.525,13.669-30.525,30.525
		c0,16.856,13.669,30.526,30.525,30.526c16.856,0,30.526-13.67,30.526-30.526C86.113,155.4,72.443,141.731,55.587,141.731
		 M246.124,203.884c-16.856,0-30.525,13.67-30.525,30.526c0,16.856,13.669,30.525,30.525,30.525
		c16.857,0,30.526-13.669,30.526-30.525C276.65,217.554,262.982,203.884,246.124,203.884z M125.744,124.222l-26.936,24.064
		c3.947,7.099,6.196,15.274,6.196,23.97c0,27.286-22.131,49.418-49.417,49.418c-27.285,0-49.417-22.132-49.417-49.418
		c0-27.285,22.132-49.417,49.417-49.417c10.098,0,19.488,3.031,27.314,8.232l26.456-23.635
		c-6.929-10.303-10.976-22.706-10.976-36.053c0-35.727,28.975-64.701,64.702-64.701c35.727,0,64.702,28.974,64.702,64.701
		c0,21.422-10.421,40.413-26.467,52.187l33.538,63.237c3.618-0.853,7.391-1.305,11.269-1.305c27.004,0,48.908,21.904,48.908,48.908
		c0,27.004-21.904,48.908-48.908,48.908c-27.004,0-48.908-21.903-48.908-48.908c0-14.717,6.504-27.92,16.795-36.888l-33.804-63.738
		c-5.456,1.495-11.196,2.3-17.125,2.3C149.177,136.084,136.293,131.69,125.744,124.222z M163.083,27.569
		c-24.193,0-43.813,19.621-43.813,43.814c0,24.193,19.62,43.814,43.813,43.814c24.194,0,43.814-19.621,43.814-43.814
		C206.896,47.19,187.276,27.569,163.083,27.569z"/>
	<g>
		<path fill="#22445B" d="M835.72,164.539h-53.606c-6.365,0-11.63-2.14-15.817-6.441c-4.224-4.28-6.327-9.698-6.327-16.252
			c0-6.668,2.084-12.123,6.27-16.366c4.148-4.262,9.433-6.383,15.873-6.383h30.857v-7.766c0-2.122-0.7-3.864-2.103-5.285
			c-1.42-1.402-3.163-2.103-5.285-2.103h-45.613V88.79h53.777c6.213,0,11.422,2.103,15.646,6.327
			c4.224,4.224,6.327,9.433,6.327,15.646V164.539z M812.971,134.251h-22.863c-2.16,0-3.902,0.701-5.285,2.103
			c-1.402,1.439-2.102,3.277-2.102,5.493c0,2.178,0.701,3.978,2.102,5.379c1.421,1.439,3.164,2.159,5.285,2.159h22.863V134.251z
			 M729.842,164.539h-31.463c-6.251,0-11.498-2.122-15.76-6.384c-4.262-4.224-6.383-9.452-6.383-15.703V88.79h22.75v53.208
			c0,2.122,0.701,3.864,2.103,5.285c1.42,1.402,3.163,2.103,5.285,2.103h15.475c2.16,0,3.921-0.701,5.304-2.103
			c1.383-1.42,2.083-3.163,2.083-5.285V88.79h22.749v53.663c0,6.289-2.121,11.535-6.345,15.76
			C741.396,162.437,736.13,164.539,729.842,164.539z M668.249,164.539H645.5V88.79h22.749V164.539z M637.514,164.539h-38.566
			c-6.251,0-11.479-2.103-15.703-6.327c-4.224-4.224-6.326-9.452-6.326-15.703V73.636h22.75V88.79h37.846v15.154h-37.846v38.055
			c0,2.122,0.701,3.864,2.102,5.285c1.421,1.402,3.164,2.103,5.285,2.103h30.459V164.539z M568.931,164.539h-53.606
			c-6.365,0-11.63-2.14-15.817-6.441c-4.224-4.28-6.327-9.698-6.327-16.252c0-6.668,2.084-12.123,6.27-16.366
			c4.148-4.262,9.433-6.383,15.873-6.383h30.857v-7.766c0-2.122-0.701-3.864-2.103-5.285c-1.421-1.402-3.163-2.103-5.285-2.103
			h-45.612V88.79h53.776c6.213,0,11.422,2.103,15.646,6.327c4.224,4.224,6.326,9.433,6.326,15.646V164.539z M546.182,134.251
			h-22.863c-2.16,0-3.902,0.701-5.285,2.103c-1.402,1.439-2.102,3.277-2.102,5.493c0,2.178,0.701,3.978,2.102,5.379
			c1.421,1.439,3.164,2.159,5.285,2.159h22.863V134.251z M447.35,164.539H424.6v-53.776c0-6.213,2.122-11.422,6.384-15.646
			c4.224-4.224,9.433-6.327,15.646-6.327h38.566v15.154h-30.459c-2.122,0-3.864,0.701-5.285,2.084
			c-1.402,1.383-2.102,3.144-2.102,5.304V164.539z M416.614,164.539h-38.566c-6.251,0-11.479-2.103-15.703-6.327
			c-4.224-4.224-6.327-9.452-6.327-15.703V73.636h22.749V88.79h37.846v15.154h-37.846v38.055c0,2.122,0.7,3.864,2.103,5.285
			c1.42,1.402,3.163,2.103,5.285,2.103h30.459V164.539z M348.032,164.539h-53.606c-6.365,0-11.63-2.14-15.816-6.441
			c-4.224-4.28-6.327-9.698-6.327-16.252c0-6.668,2.084-12.123,6.27-16.366c4.149-4.262,9.433-6.383,15.873-6.383h30.857v-7.766
			c0-2.122-0.701-3.864-2.102-5.285c-1.421-1.402-3.164-2.103-5.285-2.103h-45.612V88.79h53.776c6.213,0,11.422,2.103,15.646,6.327
			c4.224,4.224,6.327,9.433,6.327,15.646V164.539z M325.282,134.251h-22.863c-2.159,0-3.902,0.701-5.285,2.103
			c-1.402,1.439-2.103,3.277-2.103,5.493c0,2.178,0.7,3.978,2.103,5.379c1.42,1.439,3.163,2.159,5.285,2.159h22.863V134.251z"/>
		<path fill="#22445B" d="M821.52,232.37h-33.664v-57.085h14.286v9.516h19.484c3.901,0,7.173,1.32,9.825,3.973
			c2.653,2.652,3.974,5.924,3.974,9.826v19.9c0,3.949-1.333,7.245-3.985,9.897C828.776,231.049,825.469,232.37,821.52,232.37
			 M816.5,194.317h-14.358v28.536H816.5c1.356,0,2.462-0.44,3.33-1.32c0.868-0.892,1.309-1.987,1.309-3.319v-19.258
			c0-1.333-0.44-2.427-1.32-3.319C818.927,194.757,817.832,194.317,816.5,194.317z M781.924,232.37h-33.735
			c-3.925,0-7.208-1.32-9.861-3.973c-2.653-2.652-3.973-5.936-3.973-9.861v-19.829c0-3.997,1.321-7.316,3.973-9.945
			c2.652-2.641,5.959-3.961,9.932-3.961h19.758c4.044,0,7.376,1.333,9.98,4.009c2.617,2.676,3.926,6.103,3.926,10.277
			c0,4.14-1.309,7.541-3.937,10.218c-2.629,2.701-5.948,4.044-9.969,4.044h-19.377v4.877c0,1.32,0.44,2.426,1.32,3.307
			c0.892,0.88,1.986,1.32,3.319,1.32h28.644V232.37z M762.999,194.317h-9.719c-1.332,0-2.427,0.44-3.319,1.308
			c-0.88,0.868-1.32,1.975-1.32,3.331v4.877h14.358c1.356,0,2.462-0.44,3.33-1.321c0.868-0.892,1.308-2.022,1.308-3.426
			c0-1.368-0.44-2.51-1.308-3.414C765.461,194.769,764.355,194.317,762.999,194.317z M717.003,232.37h-43.739
			c-3.925,0-7.208-1.32-9.861-3.973c-2.653-2.652-3.973-5.936-3.973-9.861V184.8h14.286v33.414c0,1.332,0.44,2.427,1.32,3.319
			c0.892,0.88,1.986,1.32,3.319,1.32h9.623V184.8h14.286v38.053h9.611c1.356,0,2.462-0.44,3.331-1.32
			c0.869-0.892,1.308-1.987,1.308-3.319V184.8h14.286v33.735c0,3.926-1.32,7.209-3.961,9.861
			C724.212,231.049,720.929,232.37,717.003,232.37z"/>
	</g>
</g>
</svg>
